<svg width="75" height="87" viewBox="0 0 75 87" fill="none" xmlns="http://www.w3.org/2000/svg">
    <path fill-rule="evenodd" clip-rule="evenodd"
        d="M37.5 84.7273C56.9555 84.7273 72.7273 68.9555 72.7273 49.5C72.7273 30.0445 56.9555 14.2727 37.5 14.2727C18.0445 14.2727 2.27273 30.0445 2.27273 49.5C2.27273 68.9555 18.0445 84.7273 37.5 84.7273ZM37.5 87C58.2107 87 75 70.2107 75 49.5C75 28.7893 58.2107 12 37.5 12C16.7893 12 0 28.7893 0 49.5C0 70.2107 16.7893 87 37.5 87Z"
        fill="black" fill-opacity="0.13" />
    <g filter="url(#filter0_dd_14_340)">
        <path
            d="M26.5207 17.0076C26.5207 19.7733 24.3894 22.0153 21.7603 22.0153C19.1313 22.0153 17 19.7733 17 17.0076C17 14.242 19.1313 12 21.7603 12C24.3894 12 26.5207 14.242 26.5207 17.0076Z"
            fill="url(#paint0_linear_14_340)" />
        <path
            d="M26.2707 17.0076C26.2707 19.6473 24.2395 21.7653 21.7603 21.7653C19.2811 21.7653 17.25 19.6473 17.25 17.0076C17.25 14.368 19.2811 12.25 21.7603 12.25C24.2395 12.25 26.2707 14.368 26.2707 17.0076Z"
            stroke="url(#paint1_linear_14_340)" stroke-width="0.5" />
    </g>
    <defs>
        <filter id="filter0_dd_14_340" x="5" y="0" width="29.5208" height="30.0151" filterUnits="userSpaceOnUse"
            color-interpolation-filters="sRGB">
            <feFlood flood-opacity="0" result="BackgroundImageFix" />
            <feColorMatrix in="SourceAlpha" type="matrix" values="0 0 0 0 0 0 0 0 0 0 0 0 0 0 0 0 0 0 127 0"
                result="hardAlpha" />
            <feOffset dx="2" dy="2" />
            <feGaussianBlur stdDeviation="2" />
            <feComposite in2="hardAlpha" operator="out" />
            <feColorMatrix type="matrix" values="0 0 0 0 0 0 0 0 0 0 0 0 0 0 0 0 0 0 0.66 0" />
            <feBlend mode="normal" in2="BackgroundImageFix" result="effect1_dropShadow_14_340" />
            <feColorMatrix in="SourceAlpha" type="matrix" values="0 0 0 0 0 0 0 0 0 0 0 0 0 0 0 0 0 0 127 0"
                result="hardAlpha" />
            <feOffset dx="-2" dy="-2" />
            <feGaussianBlur stdDeviation="5" />
            <feComposite in2="hardAlpha" operator="out" />
            <feColorMatrix type="matrix" values="0 0 0 0 0.764531 0 0 0 0 0.970833 0 0 0 0 0.970833 0 0 0 0.38 0" />
            <feBlend mode="normal" in2="effect1_dropShadow_14_340" result="effect2_dropShadow_14_340" />
            <feBlend mode="normal" in="SourceGraphic" in2="effect2_dropShadow_14_340" result="shape" />
        </filter>
        <linearGradient id="paint0_linear_14_340" x1="18.7851" y1="12" x2="25.4405" y2="18.7005"
            gradientUnits="userSpaceOnUse">
            <stop offset="0.119792" stop-color="#8DFBF4" />
            <stop offset="0.90625" stop-color="#437C9A" />
        </linearGradient>
        <linearGradient id="paint1_linear_14_340" x1="56.2642" y1="-4.8225" x2="62.888" y2="0.687097"
            gradientUnits="userSpaceOnUse">
            <stop stop-color="#67BBCD" />
            <stop offset="1" stop-color="#65ACA9" />
        </linearGradient>
    </defs>
</svg>