<svg width="102" height="111" viewBox="0 0 102 111" fill="none" xmlns="http://www.w3.org/2000/svg">
<g filter="url(#filter0_i_935_1889)">
<path d="M52 9.5C50.3431 9.5 49 10.8431 49 12.5C49 14.1569 50.3431 15.5 52 15.5V9.5ZM3.5 59L0.5 59L3.5 59ZM42.7599 15.9887C44.4105 15.8452 45.6323 14.3907 45.4887 12.7401C45.3452 11.0895 43.8907 9.86775 42.2401 10.0113L42.7599 15.9887ZM52 15.5C72.5755 15.5 95.5 33.38 95.5 59H101.5C101.5 29.62 75.4245 9.5 52 9.5V15.5ZM95.5 59C95.5 88.0339 70.6703 105 50 105V111C73.3297 111 101.5 91.9661 101.5 59H95.5ZM50 105C29.4906 105 6.50001 88.1816 6.5 59L0.5 59C0.500015 91.8184 26.5094 111 50 111V105ZM6.5 59C6.49999 45.3311 12.8751 34.8327 20.7265 27.5576C28.6819 20.1861 37.8333 16.4171 42.7599 15.9887L42.2401 10.0113C35.6667 10.5829 25.3181 15.1232 16.6485 23.1565C7.87485 31.2861 0.499993 43.2877 0.5 59L6.5 59Z" fill="url(#paint0_linear_935_1889)"/>
</g>
<path d="M52 11C51.1716 11 50.5 11.6716 50.5 12.5C50.5 13.3284 51.1716 14 52 14V11ZM3.5 59L2 59L3.5 59ZM52 14C73.2877 14 97 32.44 97 59H100C100 30.56 74.7123 11 52 11V14ZM97 59C97 89.017 71.3351 106.5 50 106.5V109.5C72.6649 109.5 100 90.983 100 59H97ZM50 106.5C28.7453 106.5 5.00001 89.0908 5 59L2 59C2.00001 90.9092 27.2547 109.5 50 109.5V106.5ZM5 59C4.99999 41.3431 15.2847 28.7904 25.8475 21.5575L24.1525 19.0822C13.0595 26.6782 1.99999 40.0503 2 59L5 59Z" fill="url(#paint1_linear_935_1889)"/>
<g filter="url(#filter1_dd_935_1889)">
<circle cx="29" cy="18" r="6" fill="url(#paint2_linear_935_1889)"/>
<circle cx="29" cy="18" r="5.75" stroke="url(#paint3_linear_935_1889)" stroke-width="0.5"/>
</g>
<defs>
<filter id="filter0_i_935_1889" x="0.5" y="9.5" width="103" height="103.5" filterUnits="userSpaceOnUse" color-interpolation-filters="sRGB">
<feFlood flood-opacity="0" result="BackgroundImageFix"/>
<feBlend mode="normal" in="SourceGraphic" in2="BackgroundImageFix" result="shape"/>
<feColorMatrix in="SourceAlpha" type="matrix" values="0 0 0 0 0 0 0 0 0 0 0 0 0 0 0 0 0 0 127 0" result="hardAlpha"/>
<feOffset dx="3" dy="3"/>
<feGaussianBlur stdDeviation="1"/>
<feComposite in2="hardAlpha" operator="arithmetic" k2="-1" k3="1"/>
<feColorMatrix type="matrix" values="0 0 0 0 0 0 0 0 0 0 0 0 0 0 0 0 0 0 0.45 0"/>
<feBlend mode="normal" in2="shape" result="effect1_innerShadow_935_1889"/>
</filter>
<filter id="filter1_dd_935_1889" x="11" y="0" width="32" height="32" filterUnits="userSpaceOnUse" color-interpolation-filters="sRGB">
<feFlood flood-opacity="0" result="BackgroundImageFix"/>
<feColorMatrix in="SourceAlpha" type="matrix" values="0 0 0 0 0 0 0 0 0 0 0 0 0 0 0 0 0 0 127 0" result="hardAlpha"/>
<feOffset dx="2" dy="2"/>
<feGaussianBlur stdDeviation="2"/>
<feComposite in2="hardAlpha" operator="out"/>
<feColorMatrix type="matrix" values="0 0 0 0 0 0 0 0 0 0 0 0 0 0 0 0 0 0 0.66 0"/>
<feBlend mode="normal" in2="BackgroundImageFix" result="effect1_dropShadow_935_1889"/>
<feColorMatrix in="SourceAlpha" type="matrix" values="0 0 0 0 0 0 0 0 0 0 0 0 0 0 0 0 0 0 127 0" result="hardAlpha"/>
<feOffset dx="-2" dy="-2"/>
<feGaussianBlur stdDeviation="5"/>
<feComposite in2="hardAlpha" operator="out"/>
<feColorMatrix type="matrix" values="0 0 0 0 0.764531 0 0 0 0 0.970833 0 0 0 0 0.970833 0 0 0 0.38 0"/>
<feBlend mode="normal" in2="effect1_dropShadow_935_1889" result="effect2_dropShadow_935_1889"/>
<feBlend mode="normal" in="SourceGraphic" in2="effect2_dropShadow_935_1889" result="shape"/>
</filter>
<linearGradient id="paint0_linear_935_1889" x1="27" y1="15.5" x2="78.5" y2="100" gradientUnits="userSpaceOnUse">
<stop stop-color="#444444"/>
<stop offset="1" stop-color="#333333"/>
</linearGradient>
<linearGradient id="paint1_linear_935_1889" x1="21.3125" y1="12.5" x2="84.69" y2="79.2701" gradientUnits="userSpaceOnUse">
<stop offset="0.119792" stop-color="#8DFBF4"/>
<stop offset="0.90625" stop-color="#437C9A"/>
</linearGradient>
<linearGradient id="paint2_linear_935_1889" x1="25.25" y1="12" x2="33.2114" y2="20.4317" gradientUnits="userSpaceOnUse">
<stop offset="0.119792" stop-color="#8DFBF4"/>
<stop offset="0.90625" stop-color="#437C9A"/>
</linearGradient>
<linearGradient id="paint3_linear_935_1889" x1="25.5" y1="14" x2="33.5" y2="21" gradientUnits="userSpaceOnUse">
<stop stop-color="#67BBCD"/>
<stop offset="1" stop-color="#65ACA9"/>
</linearGradient>
</defs>
</svg>
